<svg width="204" height="204" viewBox="0 0 204 204" fill="none" xmlns="http://www.w3.org/2000/svg">
<g id="vaadin:morning">
<path id="Vector" d="M178.5 127.5L158.355 112.455L168.3 89.25L142.8 86.3175L140.25 61.2L117.045 71.145L102 51L86.955 71.145L63.75 61.2L60.8175 86.7L35.7 89.25L45.645 112.455L25.5 127.5H0V140.25H204V127.5H178.5ZM51 127.5C51.4531 114.133 56.9597 101.436 66.4085 91.9708C75.8574 82.5054 88.5449 76.9765 101.911 76.5C115.293 76.931 128.012 82.4278 137.497 91.8789C146.981 101.33 152.522 114.03 153 127.411L51 127.5Z" fill="white"/>
</g>
</svg>
